<?xml version="1.0"?>
<svg xmlns="http://www.w3.org/2000/svg" viewBox="0 0 100 100" width="100" height="100" fill="none" stroke="#1F2937" stroke-width="2" stroke-linecap="round" stroke-linejoin="round"><rect x="16" y="24" width="68" height="10" rx="2" ry="2"></rect><circle cx="75" cy="29" r="1.8"></circle><line x1="23" y1="27" x2="23" y2="31"></line><line x1="27" y1="27" x2="27" y2="31"></line><rect x="16" y="36" width="68" height="10" rx="2" ry="2"></rect><circle cx="75" cy="41" r="1.8"></circle><line x1="23" y1="39" x2="23" y2="43"></line><line x1="27" y1="39" x2="27" y2="43"></line><rect x="16" y="48" width="68" height="10" rx="2" ry="2"></rect><circle cx="75" cy="53" r="1.8"></circle><line x1="23" y1="51" x2="23" y2="55"></line><line x1="27" y1="51" x2="27" y2="55"></line><rect x="16" y="60" width="68" height="10" rx="2" ry="2"></rect><circle cx="75" cy="65" r="1.8"></circle><line x1="23" y1="63" x2="23" y2="67"></line><line x1="27" y1="63" x2="27" y2="67"></line><rect x="16" y="72" width="68" height="10" rx="2" ry="2"></rect><circle cx="75" cy="77" r="1.8"></circle><line x1="23" y1="75" x2="23" y2="79"></line><line x1="27" y1="75" x2="27" y2="79"></line></svg>